<svg width="75" height="74" viewBox="0 0 75 74" fill="none" xmlns="http://www.w3.org/2000/svg">
<rect x="0.5" width="74" height="74" rx="37" fill="url(#paint0_linear_11_86913)" fill-opacity="0.1"/>
<rect x="1" y="0.5" width="73" height="73" rx="36.5" stroke="url(#paint1_linear_11_86913)" stroke-opacity="0.2"/>
<path d="M35.6651 41.5386C34.7104 41.5386 34.1512 41.0012 34.1512 40.0368V38.9208C30.1417 38.6453 26.1459 37.8187 22 36.2342V33.961C27.1005 36.2205 32.2147 37.0196 37.7789 37.0196C43.3568 37.0196 48.4709 36.2205 53.5714 33.961V36.2342C49.4255 37.8187 45.4297 38.6453 41.4202 38.9208V40.0368C41.4202 41.0012 40.861 41.5386 39.9064 41.5386H35.6651ZM26.2141 50.7004H49.3573C52.1804 50.7004 53.5714 49.3228 53.5714 46.4984V33.093C53.5714 30.2687 52.1804 28.891 49.3573 28.891H26.2141C23.4047 28.891 22 30.2687 22 33.093V46.4984C22 49.3228 23.4047 50.7004 26.2141 50.7004ZM30.8646 30.0896H32.9784V27.651C32.9784 26.6039 33.5921 26.0115 34.6558 26.0115H40.9156C41.9794 26.0115 42.5794 26.6039 42.5794 27.651V30.062H44.6932V27.8025C44.6932 25.2124 43.3431 24 40.8747 24H34.6831C32.3511 24 30.8646 25.2124 30.8646 27.8025V30.0896Z" fill="#CAFF33"/>
<defs>
<linearGradient id="paint0_linear_11_86913" x1="37.5" y1="-49" x2="37.5" y2="191" gradientUnits="userSpaceOnUse">
<stop stop-color="#CAFF33"/>
<stop offset="0.467671" stop-color="#CAFF33" stop-opacity="0"/>
</linearGradient>
<linearGradient id="paint1_linear_11_86913" x1="37.5" y1="-128.5" x2="37.5" y2="141" gradientUnits="userSpaceOnUse">
<stop stop-color="#CAFF33"/>
<stop offset="0.716291" stop-color="#CAFF33" stop-opacity="0"/>
</linearGradient>
</defs>
</svg>
