<svg width="75" height="74" viewBox="0 0 75 74" fill="none" xmlns="http://www.w3.org/2000/svg">
<rect x="0.5" width="74" height="74" rx="37" fill="url(#paint0_linear_205_6)" fill-opacity="0.1"/>
<rect x="1" y="0.5" width="73" height="73" rx="36.5" stroke="url(#paint1_linear_205_6)" stroke-opacity="0.2"/>
<path d="M37.5 30.625C35.7396 30.625 34.3125 32.0521 34.3125 33.8125C34.3125 35.5729 35.7396 37 37.5 37C39.2604 37 40.6875 35.5729 40.6875 33.8125C40.6875 32.0521 39.2604 30.625 37.5 30.625Z" fill="#CAFF33"/>
<path fill-rule="evenodd" clip-rule="evenodd" d="M22.625 26.9062C22.625 25.4392 23.8142 24.25 25.2812 24.25H49.7188C51.1858 24.25 52.375 25.4392 52.375 26.9062V40.7188C52.375 42.1858 51.1858 43.375 49.7188 43.375H25.2812C23.8142 43.375 22.625 42.1858 22.625 40.7188V26.9062ZM32.1875 33.8125C32.1875 30.8785 34.566 28.5 37.5 28.5C40.434 28.5 42.8125 30.8785 42.8125 33.8125C42.8125 36.7465 40.434 39.125 37.5 39.125C34.566 39.125 32.1875 36.7465 32.1875 33.8125ZM47.0625 32.75C46.4757 32.75 46 33.2257 46 33.8125V33.8231C46 34.4099 46.4757 34.8856 47.0625 34.8856H47.0731C47.6599 34.8856 48.1356 34.4099 48.1356 33.8231V33.8125C48.1356 33.2257 47.6599 32.75 47.0731 32.75H47.0625ZM26.875 33.8125C26.875 33.2257 27.3507 32.75 27.9375 32.75H27.9481C28.5349 32.75 29.0106 33.2257 29.0106 33.8125V33.8231C29.0106 34.4099 28.5349 34.8856 27.9481 34.8856H27.9375C27.3507 34.8856 26.875 34.4099 26.875 33.8231V33.8125Z" fill="#CAFF33"/>
<path d="M23.6875 45.5C23.1007 45.5 22.625 45.9757 22.625 46.5625C22.625 47.1493 23.1007 47.625 23.6875 47.625C31.3376 47.625 38.747 48.6481 45.7872 50.5644C47.4738 51.0235 49.1875 49.7738 49.1875 47.9864V46.5625C49.1875 45.9757 48.7118 45.5 48.125 45.5H23.6875Z" fill="#CAFF33"/>
<defs>
<linearGradient id="paint0_linear_205_6" x1="37.5" y1="-49" x2="37.5" y2="191" gradientUnits="userSpaceOnUse">
<stop stop-color="#CAFF33"/>
<stop offset="0.467671" stop-color="#CAFF33" stop-opacity="0"/>
</linearGradient>
<linearGradient id="paint1_linear_205_6" x1="37.5" y1="-128.5" x2="37.5" y2="141" gradientUnits="userSpaceOnUse">
<stop stop-color="#CAFF33"/>
<stop offset="0.716291" stop-color="#CAFF33" stop-opacity="0"/>
</linearGradient>
</defs>
</svg>
