<svg width="156" height="41" viewBox="0 0 156 41" fill="none" xmlns="http://www.w3.org/2000/svg">
<path d="M10.0807 20.5L20.0807 10.5L30.0807 20.5L20.0807 30.5L10.0807 20.5Z" fill="#CAFF33"/>
<path d="M36.7474 13.8334L30.0807 20.5V10.5H20.0807L26.7474 3.83337H36.7474V13.8334Z" fill="#CAFF33"/>
<path d="M36.7474 27.1667L30.0807 20.5V30.5H20.0807L26.7474 37.1667H36.7474V27.1667Z" fill="#CAFF33"/>
<path d="M3.41406 27.1667L10.0807 20.5V30.5H20.0807L13.4141 37.1667H3.41406L3.41406 27.1667Z" fill="#CAFF33"/>
<path d="M3.41406 13.8334L10.0807 20.5V10.5H20.0807L13.4141 3.83337H3.41406L3.41406 13.8334Z" fill="#CAFF33"/>
<path d="M59.4367 11.8333L53.2915 22.6841V29.8323H50.3952V22.6841L44.25 11.8333H47.5493L51.8559 19.8043L56.1374 11.8333H59.4367Z" fill="white"/>
<path d="M64.5914 30.1666C62.7445 30.1666 61.1746 29.5152 59.8817 28.2124C58.5889 26.9096 57.9425 25.3068 57.9425 23.4041C57.9425 21.5013 58.5889 19.8985 59.8817 18.5958C61.1746 17.293 62.7445 16.6416 64.5914 16.6416C66.4551 16.6416 68.025 17.293 69.301 18.5958C70.5939 19.8985 71.2403 21.5013 71.2403 23.4041C71.2403 25.3068 70.5939 26.9096 69.301 28.2124C68.025 29.5152 66.4551 30.1666 64.5914 30.1666ZM61.7958 26.3096C62.5514 27.081 63.4832 27.4667 64.5914 27.4667C65.6995 27.4667 66.6314 27.081 67.3869 26.3096C68.1425 25.5383 68.5203 24.5697 68.5203 23.4041C68.5203 22.2384 68.1425 21.2699 67.3869 20.4985C66.6314 19.7271 65.6995 19.3414 64.5914 19.3414C63.4832 19.3414 62.5514 19.7271 61.7958 20.4985C61.0403 21.2699 60.6625 22.2384 60.6625 23.4041C60.6625 24.5697 61.0403 25.5383 61.7958 26.3096Z" fill="white"/>
<path d="M82.1872 16.9758H84.9072V29.8323H82.1872V28.1867C81.3645 29.5066 80.0632 30.1666 78.2835 30.1666C76.8395 30.1666 75.6726 29.6952 74.7827 28.7524C73.8929 27.8096 73.4479 26.5153 73.4479 24.8697V16.9758H76.1679V24.5869C76.1679 25.5468 76.4198 26.2839 76.9235 26.7982C77.4272 27.3124 78.1156 27.5696 78.9887 27.5696C79.9457 27.5696 80.718 27.2696 81.3057 26.6696C81.8934 26.0525 82.1872 25.1183 82.1872 23.8669V16.9758Z" fill="white"/>
<path d="M90.8078 19.1357C91.4962 17.5415 92.789 16.7444 94.6863 16.7444V19.7528C93.6453 19.6843 92.7387 19.9414 91.9663 20.5242C91.194 21.0899 90.8078 22.0327 90.8078 23.3527V29.8323H88.0878V16.9758H90.8078V19.1357Z" fill="white"/>
<path d="M107.249 20.4985C108.021 20.9099 108.625 21.4756 109.062 22.1956C109.498 22.9155 109.717 23.7469 109.717 24.6897C109.717 26.1639 109.205 27.3896 108.18 28.3667C107.156 29.3438 105.905 29.8323 104.428 29.8323H96.8723V11.8333H103.874C105.318 11.8333 106.535 12.3132 107.526 13.2732C108.533 14.216 109.037 15.3988 109.037 16.8216C109.037 18.3815 108.441 19.6071 107.249 20.4985ZM103.874 14.6103H99.7686V19.3414H103.874C104.512 19.3414 105.049 19.1186 105.486 18.6729C105.922 18.2101 106.14 17.6444 106.14 16.9758C106.14 16.3073 105.922 15.7502 105.486 15.3045C105.049 14.8417 104.512 14.6103 103.874 14.6103ZM104.428 27.0553C105.099 27.0553 105.662 26.8153 106.115 26.3354C106.585 25.8382 106.82 25.2383 106.82 24.5355C106.82 23.8326 106.585 23.2412 106.115 22.7613C105.662 22.2641 105.099 22.0156 104.428 22.0156H99.7686V27.0553H104.428Z" fill="white"/>
<path d="M122.164 16.9758H124.884V29.8323H122.164V27.981C121.14 29.4381 119.671 30.1666 117.757 30.1666C116.027 30.1666 114.55 29.5152 113.324 28.2124C112.098 26.8925 111.486 25.2897 111.486 23.4041C111.486 21.5013 112.098 19.8985 113.324 18.5958C114.55 17.293 116.027 16.6416 117.757 16.6416C119.671 16.6416 121.14 17.3615 122.164 18.8015V16.9758ZM115.339 26.3611C116.095 27.1325 117.043 27.5182 118.185 27.5182C119.327 27.5182 120.275 27.1325 121.031 26.3611C121.786 25.5725 122.164 24.5869 122.164 23.4041C122.164 22.2213 121.786 21.2442 121.031 20.4728C120.275 19.6843 119.327 19.29 118.185 19.29C117.043 19.29 116.095 19.6843 115.339 20.4728C114.583 21.2442 114.206 22.2213 114.206 23.4041C114.206 24.5869 114.583 25.5725 115.339 26.3611Z" fill="white"/>
<path d="M134.678 16.6416C136.122 16.6416 137.289 17.113 138.179 18.0558C139.069 18.9986 139.514 20.2928 139.514 21.9384V29.8323H136.794V22.2213C136.794 21.2613 136.542 20.5242 136.038 20.01C135.535 19.4957 134.846 19.2386 133.973 19.2386C133.016 19.2386 132.244 19.5471 131.656 20.1642C131.068 20.7642 130.775 21.6899 130.775 22.9412V29.8323H128.055V16.9758H130.775V18.6215C131.597 17.3015 132.898 16.6416 134.678 16.6416Z" fill="white"/>
<path d="M155.917 29.8323H152.466L145.515 21.2699V29.8323H142.619V11.8333H145.515V19.9071L152.214 11.8333H155.665L148.537 20.6014L155.917 29.8323Z" fill="white"/>
</svg>
